<?xml version="1.0" encoding="UTF-8"?>
<svg xmlns="http://www.w3.org/2000/svg" viewBox="0 0 64 64" width="64" height="64">
  <defs>
    <linearGradient id="wingGradient1" x1="0%" y1="0%" x2="100%" y2="100%">
      <stop offset="0%" style="stop-color:#667eea;stop-opacity:1" />
      <stop offset="50%" style="stop-color:#764ba2;stop-opacity:1" />
      <stop offset="100%" style="stop-color:#f093fb;stop-opacity:1" />
    </linearGradient>
    
    <linearGradient id="wingGradient2" x1="0%" y1="0%" x2="100%" y2="100%">
      <stop offset="0%" style="stop-color:#4facfe;stop-opacity:1" />
      <stop offset="50%" style="stop-color:#00f2fe;stop-opacity:1" />
      <stop offset="100%" style="stop-color:#43e97b;stop-opacity:1" />
    </linearGradient>
    
    <linearGradient id="bodyGradient" x1="0%" y1="0%" x2="0%" y2="100%">
      <stop offset="0%" style="stop-color:#2c3e50;stop-opacity:1" />
      <stop offset="100%" style="stop-color:#34495e;stop-opacity:1" />
    </linearGradient>
  </defs>
  
  <!-- Sayap atas kiri -->
  <path d="M 25.6 22.4 Q 16 12.8 9.6 19.2 Q 8 24 12.8 27.2 Q 19.2 30.4 25.6 27.2 Z" 
        fill="url(#wingGradient1)" 
        opacity="0.9"/>
  
  <!-- Sayap atas kanan -->
  <path d="M 38.4 22.4 Q 48 12.8 54.4 19.2 Q 56 24 51.2 27.2 Q 44.8 30.4 38.4 27.2 Z" 
        fill="url(#wingGradient1)" 
        opacity="0.9"/>
  
  <!-- Sayap bawah kiri -->
  <path d="M 27.2 35.2 Q 14.4 41.6 11.2 48 Q 12.8 52.8 17.6 51.2 Q 24 48 27.2 41.6 Z" 
        fill="url(#wingGradient2)" 
        opacity="0.9"/>
  
  <!-- Sayap bawah kanan -->
  <path d="M 36.8 35.2 Q 49.6 41.6 52.8 48 Q 51.2 52.8 46.4 51.2 Q 40 48 36.8 41.6 Z" 
        fill="url(#wingGradient2)" 
        opacity="0.9"/>
  
  <!-- Badan kupu-kupu -->
  <ellipse cx="32" cy="32" rx="1.3" ry="14.4" fill="url(#bodyGradient)"/>
  
  <!-- Antena -->
  <path d="M 30.7 19.2 Q 29.4 14.4 28.2 12.8" stroke="#2c3e50" stroke-width="0.7" fill="none" stroke-linecap="round"/>
  <circle cx="28.2" cy="12.8" r="0.6" fill="#e74c3c"/>
  
  <path d="M 33.3 19.2 Q 34.6 14.4 35.8 12.8" stroke="#2c3e50" stroke-width="0.7" fill="none" stroke-linecap="round"/>
  <circle cx="35.8" cy="12.8" r="0.6" fill="#e74c3c"/>
  
  <!-- Detail sayap -->
  <circle cx="19.2" cy="20.8" r="1" fill="#ffffff" opacity="0.6"/>
  <circle cx="44.8" cy="20.8" r="1" fill="#ffffff" opacity="0.6"/>
  <circle cx="20.8" cy="43.2" r="0.8" fill="#ffffff" opacity="0.5"/>
  <circle cx="43.2" cy="43.2" r="0.8" fill="#ffffff" opacity="0.5"/>
</svg>
